<svg width="127" height="38" viewBox="0 0 127 38" fill="none" xmlns="http://www.w3.org/2000/svg">
<g id="Branding">
<path id="Vector" d="M21.2775 3.64551V9.77825L16.2362 12.5973L0 21.6712V15.7115L21.2775 3.64551Z" fill="white"/>
<path id="Vector_2" d="M15.8707 0.974609L21.2775 3.89187L0 15.6622V9.84164L15.8707 0.974609Z" fill="#52C1B0"/>
<path id="Vector_3" d="M0 21.6709V28.0286L16.0196 37.0262L21.2472 33.8243L21.2775 27.4906L15.949 30.6625L0 21.6709Z" fill="white"/>
<path id="Vector_4" d="M0 21.6896L16.6295 12.3242L21.9424 15.2019L11.2423 21.7622L21.7259 27.7001L16.2666 31.0176L0 21.6896Z" fill="#52C1B0"/>
<path id="Vector_5" d="M21.9426 14.9951L21.9365 21.5667L16.5461 25.0094L11.3039 21.8632L21.9426 14.9951Z" fill="white"/>
<path id="Vector_6" d="M40.5599 27.0121V10.9893H51.1987V12.8301H42.6227V18.57H49.6601V20.4108H42.6227V27.0121H40.5599Z" fill="white"/>
<path id="Vector_7" d="M53.8585 27.0101V15.4369H55.8532V27.0121H53.8585V27.0101ZM53.8585 13.5717V10.9893H55.8532V13.5717H53.8585Z" fill="white"/>
<path id="Vector_8" d="M65.356 19.0146C65.356 17.3966 64.2123 16.418 62.6987 16.418C61.185 16.418 60.0414 17.3987 60.0414 19.0146C60.0414 20.6304 61.2083 21.6132 62.6987 21.6132C64.1891 21.6132 65.356 20.6325 65.356 19.0146ZM66.4743 28.1308C66.4743 27.3707 65.8782 27.0272 64.6605 27.0272H59.7412C59.3437 27.3707 58.9209 27.8851 58.9209 28.4493C58.9209 29.4051 60.0392 29.9923 62.1998 29.9923C64.9332 29.9923 66.4722 29.3072 66.4722 28.1308H66.4743ZM60.3627 22.7647C60.0646 23.1562 59.7179 23.7205 59.7179 24.2348C59.7179 24.872 60.0646 25.1906 61.3077 25.1906H64.9353C67.1212 25.1906 68.4869 26.0485 68.4869 27.8372C68.4869 30.0923 66.2502 31.6852 62.2019 31.6852C59.1218 31.6852 57.1832 30.6795 57.1832 29.1115C57.1832 28.0079 58.2022 27.3478 59.1218 26.9793C58.3523 26.7336 57.9548 26.1693 57.9548 25.3863C57.9548 24.4555 58.6757 23.4248 59.8426 22.494C58.6503 21.759 57.9548 20.5096 57.9548 19.0146C57.9548 16.5387 59.868 14.7751 62.6987 14.7751C63.4301 14.7709 64.1552 14.9042 64.8338 15.1665L65.5801 12.3242L67.8167 13.1092L65.6055 15.5601C66.747 16.2951 67.4426 17.5445 67.4426 19.0166C67.4426 21.4925 65.5294 23.2562 62.6987 23.2562C61.8932 23.2666 61.0941 23.1 60.3627 22.7668V22.7647Z" fill="white"/>
<path id="Vector_9" d="M72.6405 19.7179V25.1693H77.0362C79.6659 25.1693 80.8826 24.3566 80.8826 22.4446C80.8826 20.5327 79.2688 19.72 77.1101 19.72H72.6405V19.7179ZM72.6405 12.8321V17.8548H76.8608C78.7724 17.8548 80.137 17.2818 80.137 15.3434C80.137 13.4051 78.7492 12.8321 76.7616 12.8321H72.6405ZM70.4818 27.0121V10.9893H77.5072C80.684 10.9893 82.3718 12.6391 82.3718 15.0793C82.3718 16.8002 81.2058 18.3546 78.426 18.6431C81.9007 19.0007 83.1153 20.6526 83.1153 22.7088C83.1153 25.4334 80.9819 27.0121 77.3826 27.0121H70.4818Z" fill="white"/>
<path id="Vector_10" d="M83.7803 29.0735L84.8888 27.4258C85.431 28.3991 86.0214 29.1222 87.1078 29.1222C88.0275 29.1222 88.64 28.6472 89.0898 27.1756L89.3247 26.4016L88.0516 26.427L84.206 14.9951H86.3989L88.8528 22.7563L89.6561 25.3519L90.4593 22.7563L92.8891 14.9951H95.084L90.6943 28.0726C89.9633 30.2949 88.6881 31.018 87.0837 31.018C85.4792 31.018 84.2763 30.0701 83.7803 29.0713" fill="white"/>
<path id="Vector_11" d="M97.6905 23.8203V16.9126H95.7484V15.3048H97.6905V13.8376L99.8573 12.3242V15.3048H103.82V16.9126H99.8573V23.2053C99.8573 24.6724 100.58 25.0262 101.528 25.0262C102.599 25.0262 103.347 24.174 103.669 23.4646L104.392 25.4985C103.869 26.2803 102.724 27.0119 101.055 27.0119C99.0856 27.0119 97.6905 25.7819 97.6905 23.8183" fill="white"/>
<path id="Vector_12" d="M107.104 19.9795H113.841C113.626 17.8581 112.388 16.7356 110.46 16.7356C108.532 16.7356 107.365 17.8317 107.104 19.9795ZM105.058 21.0047C105.058 17.3556 107.294 14.9951 110.46 14.9951C113.626 14.9951 115.696 17.1651 115.696 20.5508C115.696 20.8629 115.664 21.1749 115.601 21.4809H107.057C107.176 23.9143 108.532 25.2961 110.58 25.2961C112.889 25.2961 113.817 24.0318 114.268 23.0309L115.53 24.4613C114.673 25.8452 113.079 27.0123 110.58 27.0123C107.318 27.0123 105.058 24.6741 105.058 21.0027V21.0047Z" fill="white"/>
<path id="Vector_13" d="M117.026 23.819L118.588 22.65C119.011 23.9609 120.326 25.2738 122.708 25.2738C124.122 25.2738 125.064 24.7491 125.064 23.7238C125.064 22.6986 123.972 22.3399 122.56 22.0299L120.972 21.6713C119.26 21.2904 117.4 20.5022 117.4 18.3808C117.4 16.2594 119.085 14.9951 121.69 14.9951C124.295 14.9951 125.982 16.2838 126.652 17.8095L125.015 18.9785C124.42 17.619 123.278 16.7599 121.565 16.7599C120.326 16.7599 119.433 17.2847 119.433 18.2613C119.433 19.2865 120.227 19.6452 121.863 20.0261L123.402 20.407C126.107 21.027 127 22.1009 127 23.6975C127 25.987 124.965 27.0123 122.634 27.0123C120.128 27.0123 117.845 25.9627 117.026 23.817" fill="white"/>
</g>
</svg>
